<svg width="48" height="48" viewBox="0 0 48 48" fill="none" xmlns="http://www.w3.org/2000/svg">
<g filter="url(#filter0_i_1_12)">
<path d="M15.2698 4.14192L32.0675 3.86358C38.4666 3.75755 43.752 8.87068 43.8581 15.2698L44.1364 32.0675C44.1874 35.1436 43.0143 38.1139 40.8752 40.3251C38.7361 42.5363 35.8063 43.8071 32.7302 43.8581L15.9325 44.1364C9.53338 44.2425 4.24794 39.1293 4.14191 32.7302L3.86357 15.9325C3.8126 12.8564 4.98569 9.88608 7.12477 7.67491C9.26385 5.46375 12.1937 4.19289 15.2698 4.14192ZM14.9361 8.148C13.0268 8.17964 11.2083 8.96844 9.88059 10.3409C8.55288 11.7133 7.82476 13.557 7.8564 15.4663L8.14799 33.0639C8.21393 37.0433 11.4868 40.2095 15.4663 40.1436L33.0639 39.852C34.9732 39.8204 36.7917 39.0316 38.1194 37.6591C39.4471 36.2867 40.1752 34.443 40.1436 32.5337L39.852 14.9361C39.7861 10.9567 36.5132 7.79047 32.5337 7.85641L14.9361 8.148ZM34.2832 10.8278C34.9461 10.8168 35.5863 11.0697 36.0628 11.5307C36.5394 11.9917 36.8133 12.6231 36.8243 13.2861C36.8352 13.949 36.5824 14.5892 36.1214 15.0657C35.6604 15.5423 35.029 15.8162 34.366 15.8271C33.7031 15.8381 33.0629 15.5853 32.5864 15.1243C32.1098 14.6633 31.8359 14.0319 31.8249 13.3689C31.814 12.706 32.0668 12.0658 32.5278 11.5893C32.9888 11.1127 33.6202 10.8388 34.2832 10.8278ZM23.8343 14.0014C26.4861 13.9574 29.0468 14.9687 30.9529 16.8128C32.8591 18.6568 33.9547 21.1825 33.9986 23.8343C34.0426 26.4861 33.0313 29.0468 31.1872 30.953C29.3432 32.8591 26.8175 33.9547 24.1657 33.9986C21.5139 34.0426 18.9532 33.0313 17.047 31.1873C15.1409 29.3432 14.0453 26.8175 14.0014 24.1657C13.9574 21.5139 14.9687 18.9532 16.8127 17.0471C18.6568 15.1409 21.1825 14.0453 23.8343 14.0014ZM23.9006 18.0008C22.3095 18.0272 20.7941 18.6845 19.6876 19.8282C18.5812 20.9719 17.9745 22.5083 18.0008 24.0994C18.0272 25.6905 18.6845 27.2059 19.8282 28.3124C20.9719 29.4188 22.5083 30.0255 24.0994 29.9992C25.6905 29.9728 27.2059 29.3155 28.3123 28.1718C29.4188 27.0281 30.0255 25.4917 29.9992 23.9006C29.9728 22.3095 29.3155 20.7941 28.1718 19.6877C27.0281 18.5812 25.4917 17.9745 23.9006 18.0008Z" fill="black"/>
</g>
<defs>
<filter id="filter0_i_1_12" x="0" y="0" width="48" height="52" filterUnits="userSpaceOnUse" color-interpolation-filters="sRGB">
<feFlood flood-opacity="0" result="BackgroundImageFix"/>
<feBlend mode="normal" in="SourceGraphic" in2="BackgroundImageFix" result="shape"/>
<feColorMatrix in="SourceAlpha" type="matrix" values="0 0 0 0 0 0 0 0 0 0 0 0 0 0 0 0 0 0 127 0" result="hardAlpha"/>
<feOffset dy="4"/>
<feGaussianBlur stdDeviation="2"/>
<feComposite in2="hardAlpha" operator="arithmetic" k2="-1" k3="1"/>
<feColorMatrix type="matrix" values="0 0 0 0 0 0 0 0 0 0 0 0 0 0 0 0 0 0 0.25 0"/>
<feBlend mode="normal" in2="shape" result="effect1_innerShadow_1_12"/>
</filter>
</defs>
</svg>
